<svg xmlns="http://www.w3.org/2000/svg" viewBox="0 0 1792 878" preserveAspectRatio="xMidYMid meet">
  <g transform="translate(0 878) scale(.1 -.1)" fill="#fff">
    <path d="M7094 7376c-69-17-135-57-179-108-114-132-342-762-411-1133-33-180 5-304 119-391 76-58 212-123 376-180 116-40 126-42 152-28 16 8 33 23 39 34 6 11 49 129 97 263 47 133 132 375 190 537 58 162 143 408 189 547 109 322 114 298-83 371-244 89-386 115-489 88z"/>
    <path d="M7905 7138c-25-13-54-49-55-65 0-11-45-143-140-408-16-44-64-183-108-310-44-126-126-357-181-512-105-293-111-322-72-357 9-8 108-38 220-66 254-64 267-69 288-117 46-109-35-848-153-1403-89-419-234-890-299-975-30-41-74-55-167-55-97 0-112-16-144-150-71-303-208-904-253-1110-28-129-60-271-71-315-21-88-18-118 13-152 19-21 29-23 131-23 268 0 648 90 882 208 248 125 392 281 509 552 330 760 577 1738 674 2675 35 343 44 544 38 907-11 695-65 899-305 1150-163 170-433 362-704 499-87 44-77 42-103 27z"/>
    <path d="M11685 7093c-345-30-654-106-928-229-331-149-613-379-795-650-112-167-210-413-252-629-25-129-39-304-40-467v-118h628c345 0 857-1 1138-2l511-3 6 120c7 137 23 200 69 269 37 57 89 97 167 128l56 23 799 3c776 3 801 2 880-18 122-31 198-90 245-190 23-50 26-66 26-190 0-133-1-137-33-202-38-78-92-130-176-169-68-32-102-37-446-74-251-27-386-42-1130-129-783-92-821-96-925-112-387-56-735-172-1000-333-155-94-207-134-334-256-244-236-388-512-458-878-16-84-18-172-18-967v-875l3350-2c1843-1 3360 0 3373 3l22 4v1460h-4496l7 63c16 151 63 233 168 295 83 48 162 61 836 137 363 40 716 81 785 89 69 8 298 34 510 56 552 58 754 96 1025 195 113 40 297 127 389 182 105 63 246 174 335 263 230 232 386 565 443 945 20 137 17 656-5 805-86 579-337 965-797 1225-217 123-469 195-785 225-101 9-3044 12-3150 3z"/>
    <path d="M1515 6958c-3-7-4-350-3-763l3-750 483-3 482-2V1140l1063 2 1062 3v5820l-1543 3c-1229 2-1544 0-1547-10z"/>
    <path d="M6389 3020c-143-25-226-121-297-340-124-382-204-777-206-1020-1-134-1-136 32-202 60-123 173-186 457-257 192-48 196-48 233-11 18 17 32 38 32 46 0 14 115 546 145 669 65 267 215 936 215 956 0 43-22 59-115 85-231 64-407 91-496 74z"/>
  </g>
</svg>
